<svg xmlns="http://www.w3.org/2000/svg" viewBox="0 0 128 128" role="img" aria-labelledby="title desc">
  <title id="title">KPI App Icon</title>
  <desc id="desc">Mac OS 2000 inspired glossy utility icon with dashboard bars</desc>
  <defs>
    <linearGradient id="bg" x1="0" x2="0" y1="0" y2="1">
      <stop offset="0" stop-color="#fafdff"/>
      <stop offset="1" stop-color="#cfdceb"/>
    </linearGradient>
    <linearGradient id="shell" x1="0" x2="0" y1="0" y2="1">
      <stop offset="0" stop-color="#fefefe"/>
      <stop offset="0.48" stop-color="#dfe9f5"/>
      <stop offset="1" stop-color="#bfcddd"/>
    </linearGradient>
    <linearGradient id="screen" x1="0" x2="0" y1="0" y2="1">
      <stop offset="0" stop-color="#eff8ff"/>
      <stop offset="1" stop-color="#8abdf2"/>
    </linearGradient>
    <linearGradient id="bar" x1="0" x2="0" y1="0" y2="1">
      <stop offset="0" stop-color="#74b4ff"/>
      <stop offset="1" stop-color="#2d78dd"/>
    </linearGradient>
  </defs>
  <rect width="128" height="128" rx="26" fill="url(#bg)"/>
  <rect x="22" y="20" width="84" height="68" rx="16" fill="url(#shell)" stroke="#7b8da2" stroke-width="3"/>
  <rect x="30" y="30" width="68" height="42" rx="10" fill="url(#screen)" stroke="#6083aa" stroke-width="2.5"/>
  <path d="M34 34h60c0 10-12 18-30 18S34 44 34 34Z" fill="#ffffff" fill-opacity=".45"/>
  <rect x="38" y="57" width="8" height="10" rx="2" fill="url(#bar)"/>
  <rect x="50" y="49" width="8" height="18" rx="2" fill="url(#bar)"/>
  <rect x="62" y="42" width="8" height="25" rx="2" fill="url(#bar)"/>
  <rect x="74" y="36" width="8" height="31" rx="2" fill="url(#bar)"/>
  <rect x="86" y="52" width="4" height="15" rx="1.5" fill="url(#bar)"/>
  <rect x="55" y="89" width="18" height="9" rx="4.5" fill="#8b9eb5"/>
  <path d="M47 98h34c4.4 0 8 3.6 8 8v4H39v-4c0-4.4 3.6-8 8-8Z" fill="url(#shell)" stroke="#7b8da2" stroke-width="2.5"/>
</svg>
